HIERARCHY
ROOT hip
{
  OFFSET 41.7157 36.524 20.9354
  CHANNELS 6 Xposition Yposition Zposition Zrotation Xrotation Yrotation
  JOINT abdomen
  {
    OFFSET 0 20.6881 -0.73152
    CHANNELS 3 Zrotation Xrotation Yrotation
    JOINT chest
    {
      OFFSET 0 11.7043 -0.48768
      CHANNELS 3 Zrotation Xrotation Yrotation
      JOINT neck
      {
        OFFSET 0 22.1894 -2.19456
        CHANNELS 3 Zrotation Xrotation Yrotation
        JOINT head
        {
          OFFSET -0.24384 7.07133 1.2192
          CHANNELS 3 Zrotation Xrotation Yrotation
          JOINT leftEye
          {
            OFFSET 4.14528 8.04674 8.04672
            CHANNELS 3 Zrotation Xrotation Yrotation
            End Site
            {
              OFFSET 1 0 0
            }
          }
          JOINT rightEye
          {
            OFFSET -3.6576 8.04674 8.04672
            CHANNELS 3 Zrotation Xrotation Yrotation
            End Site
            {
              OFFSET 1 0 0
            }
          }
        }
      }
      JOINT rCollar
      {
        OFFSET -2.68224 19.2634 -4.8768
        CHANNELS 3 Zrotation Xrotation Yrotation
        JOINT rShldr
        {
          OFFSET -8.77824 -1.95073 1.46304
          CHANNELS 3 Zrotation Xrotation Yrotation
          JOINT rForeArm
          {
            OFFSET -28.1742 -1.7115 0.48768
            CHANNELS 3 Zrotation Xrotation Yrotation
            JOINT rHand
            {
              OFFSET -22.5879 0.773209 7.07136
              CHANNELS 3 Zrotation Xrotation Yrotation
              JOINT rThumb1
              {
                OFFSET -1.2192 -0.487915 3.41376
                CHANNELS 3 Zrotation Xrotation Yrotation
                JOINT rThumb2
                {
                  OFFSET -3.37035 -0.52449 3.41376
                  CHANNELS 3 Zrotation Xrotation Yrotation
                  End Site
                  {
                    OFFSET -1.78271 -1.18214 1.43049
                  }
                }
              }
              JOINT rIndex1
              {
                OFFSET -7.75947 0.938293 5.60832
                CHANNELS 3 Zrotation Xrotation Yrotation
                JOINT rIndex2
                {
                  OFFSET -2.54057 -0.884171 1.56538
                  CHANNELS 3 Zrotation Xrotation Yrotation
                  End Site
                  {
                    OFFSET -1.62519 -0.234802 1.16502
                  }
                }
              }
              JOINT rMid1
              {
                OFFSET -8.24714 1.18213 3.41376
                CHANNELS 3 Zrotation Xrotation Yrotation
                JOINT rMid2
                {
                  OFFSET -3.10165 -0.590103 1.0647
                  CHANNELS 3 Zrotation Xrotation Yrotation
                  End Site
                  {
                    OFFSET -2.48547 -0.328903 0.83742
                  }
                }
              }
              JOINT rRing1
              {
                OFFSET -8.82822 0.546677 1.51678
                CHANNELS 3 Zrotation Xrotation Yrotation
                JOINT rRing2
                {
                  OFFSET -2.60934 -0.819778 -0.0198488
                  CHANNELS 3 Zrotation Xrotation Yrotation
                  End Site
                  {
                    OFFSET -2.33842 -0.294052 0.168128
                  }
                }
              }
              JOINT rPinky1
              {
                OFFSET -8.27202 -0.0477905 -0.4584
                CHANNELS 3 Zrotation Xrotation Yrotation
                JOINT rPinky2
                {
                  OFFSET -1.82734 -0.647385 -0.700984
                  CHANNELS 3 Zrotation Xrotation Yrotation
                  End Site
                  {
                    OFFSET -1.69225 -0.51767 -0.607171
                  }
                }
              }
            }
          }
        }
      }
      JOINT lCollar
      {
        OFFSET 2.68224 19.2634 -4.8768
        CHANNELS 3 Zrotation Xrotation Yrotation
        JOINT lShldr
        {
          OFFSET 8.77824 -1.95073 1.46304
          CHANNELS 3 Zrotation Xrotation Yrotation
          JOINT lForeArm
          {
            OFFSET 28.1742 -1.7115 0.48768
            CHANNELS 3 Zrotation Xrotation Yrotation
            JOINT lHand
            {
              OFFSET 22.5879 0.773209 7.07136
              CHANNELS 3 Zrotation Xrotation Yrotation
              JOINT lThumb1
              {
                OFFSET 1.2192 -0.487915 3.41376
                CHANNELS 3 Zrotation Xrotation Yrotation
                JOINT lThumb2
                {
                  OFFSET 3.37035 -0.52449 3.41376
                  CHANNELS 3 Zrotation Xrotation Yrotation
                  End Site
                  {
                    OFFSET 1.78271 -1.18214 1.43049
                  }
                }
              }
              JOINT lIndex1
              {
                OFFSET 7.75947 0.938293 5.60832
                CHANNELS 3 Zrotation Xrotation Yrotation
                JOINT lIndex2
                {
                  OFFSET 2.54057 -0.884171 1.56538
                  CHANNELS 3 Zrotation Xrotation Yrotation
                  End Site
                  {
                    OFFSET 1.62519 -0.234802 1.16502
                  }
                }
              }
              JOINT lMid1
              {
                OFFSET 8.24714 1.18213 3.41376
                CHANNELS 3 Zrotation Xrotation Yrotation
                JOINT lMid2
                {
                  OFFSET 3.10165 -0.590103 1.0647
                  CHANNELS 3 Zrotation Xrotation Yrotation
                  End Site
                  {
                    OFFSET 2.48547 -0.328903 0.83742
                  }
                }
              }
              JOINT lRing1
              {
                OFFSET 8.82822 0.546677 1.51678
                CHANNELS 3 Zrotation Xrotation Yrotation
                JOINT lRing2
                {
                  OFFSET 2.60934 -0.819778 -0.0198488
                  CHANNELS 3 Zrotation Xrotation Yrotation
                  End Site
                  {
                    OFFSET 2.33842 -0.294052 0.168128
                  }
                }
              }
              JOINT lPinky1
              {
                OFFSET 8.27202 -0.0477905 -0.4584
                CHANNELS 3 Zrotation Xrotation Yrotation
                JOINT lPinky2
                {
                  OFFSET 1.82734 -0.647385 -0.700984
                  CHANNELS 3 Zrotation Xrotation Yrotation
                  End Site
                  {
                    OFFSET 1.69225 -0.51767 -0.607171
                  }
                }
              }
            }
          }
        }
      }
    }
  }
  JOINT rButtock
  {
    OFFSET -8.77824 4.35084 1.2192
    CHANNELS 3 Zrotation Xrotation Yrotation
    JOINT rThigh
    {
      OFFSET 0 -1.70687 -2.19456
      CHANNELS 3 Zrotation Xrotation Yrotation
      JOINT rShin
      {
        OFFSET 0 -36.8199 0.73152
        CHANNELS 3 Zrotation Xrotation Yrotation
        JOINT rFoot
        {
          OFFSET 0.73152 -45.1104 -5.12064
          CHANNELS 3 Zrotation Xrotation Yrotation
          End Site
          {
            OFFSET -1.1221 -3.69964 12.103
          }
        }
      }
    }
  }
  JOINT lButtock
  {
    OFFSET 8.77824 4.35084 1.2192
    CHANNELS 3 Zrotation Xrotation Yrotation
    JOINT lThigh
    {
      OFFSET 0 -1.70687 -2.19456
      CHANNELS 3 Zrotation Xrotation Yrotation
      JOINT lShin
      {
        OFFSET 0 -36.8199 0.73152
        CHANNELS 3 Zrotation Xrotation Yrotation
        JOINT lFoot
        {
          OFFSET -0.73152 -45.1104 -5.12064
          CHANNELS 3 Zrotation Xrotation Yrotation
          End Site
          {
            OFFSET 1.1221 -3.69964 12.103
          }
        }
      }
    }
  }
}
MOTION
Frames:	7
Frame Time:	0.00833333
42.5671 44.1104 23.2264 -124.027 79.2031 117.511 7.72635 -7.19679 -6.77098 6.02883 -4.9631 -1.4392 2.73759 3.91118 4.56586 5.01395 -15.737 9.12827 -0 0 0 -0 0 0 1.73819e-013 -7.03852e-014 -2.56273e-014 -27.826 -59.8112 42.2967 -14.9517 -7.75008 27.486 -0.215421 -13.3169 -1.90448 6.37636e-010 -6.02475e-009 8.56664e-010 1.09831e-009 -1.04833e-008 1.48335e-009 6.3764e-010 -6.02475e-009 8.56641e-010 7.73091 5.47488 0.417314 6.37634e-010 -6.02474e-009 8.56661e-010 2.90554 0.965183 0.102902 6.37649e-010 -6.02474e-009 8.5666e-010 10.2786 0.731801 0.0259123 6.37635e-010 -6.02475e-009 8.56669e-010 2.22167 -0.733487 -0.20892 1.73668e-013 -7.03922e-014 -2.58812e-014 14.5166 8.72667 -10.6203 20.2512 -13.3358 -39.2855 0.916491 -26.1214 3.95153 4.75757e-010 -2.33683e-010 -7.33377e-010 8.31782e-010 -3.94286e-010 -1.25385e-009 4.75752e-010 -2.33675e-010 -7.33356e-010 -7.73091 5.47488 -0.417314 4.75758e-010 -2.33686e-010 -7.33376e-010 -2.90554 0.965183 -0.102902 4.75751e-010 -2.33685e-010 -7.3338e-010 -10.2786 0.731801 -0.0259123 4.75757e-010 -2.33683e-010 -7.33385e-010 -2.22167 -0.733487 0.20892 -2.03217e-016 0 -3.88251e-019 12.5718 -29.6629 11.8411 0.0974631 45.8694 -0.15408 -3.08241 13.5144 5.68824 2.03217e-016 0 3.88251e-019 5.28623 -20.0303 -4.10207 0.163749 23.3172 -1.13747 1.35305 0.719593 16.4698 
42.4884 44.4329 23.3171 -124.665 79.0466 118.311 7.90043 -7.31248 -6.10704 6.02537 -5.01418 -1.27286 2.85939 4.53678 4.44395 4.79566 -15.8884 8.85309 -0 0 0 -0 0 0 2.21945e-013 -7.87145e-014 1.13904e-013 -25.9666 -60.4763 44.8729 -14.6857 -7.52124 26.9442 -0.166312 -11.5449 -1.64507 1.2429e-009 -1.05247e-008 1.20079e-009 2.1346e-009 -1.85721e-008 2.08785e-009 1.24291e-009 -1.05247e-008 1.20077e-009 7.73091 5.47488 0.417314 1.2429e-009 -1.05247e-008 1.20079e-009 2.90554 0.965183 0.102902 1.24291e-009 -1.05247e-008 1.20079e-009 10.2786 0.731801 0.0259123 1.2429e-009 -1.05247e-008 1.2008e-009 2.22167 -0.733487 -0.20892 2.21757e-013 -7.87238e-014 1.13655e-013 12.4679 10.7421 -10.5598 20.9082 -14.1985 -40.9327 1.00242 -27.1995 4.1419 1.72878e-009 -1.28865e-009 -1.26769e-009 3.00879e-009 -2.1808e-009 -2.15634e-009 1.72878e-009 -1.28864e-009 -1.26767e-009 -7.73091 5.47488 -0.417314 1.72878e-009 -1.28865e-009 -1.26769e-009 -2.90554 0.965183 -0.102902 1.72878e-009 -1.28865e-009 -1.26769e-009 -10.2786 0.731801 -0.0259123 1.72878e-009 -1.28865e-009 -1.2677e-009 -2.22167 -0.733487 0.20892 -2.03217e-016 0 -3.88251e-019 12.939 -31.2021 12.445 0.128961 45.5611 -0.214041 -2.92737 13.8895 5.45996 2.03217e-016 0 3.88251e-019 5.1317 -18.7037 -3.70088 0.198241 23.4928 -0.906104 1.24161 0.716688 15.7199 
42.4115 44.7602 23.3844 -124.971 78.9407 118.85 7.9934 -7.37035 -5.34474 6.08561 -5.11121 -1.06268 3.09417 5.09895 4.27748 4.4082 -15.9089 8.43998 -0 0 0 -0 0 0 1.85861e-013 -7.2086e-014 1.31118e-013 -24.1828 -60.9713 47.2454 -14.4667 -7.33519 26.5023 -0.134116 -10.2165 -1.4526 1.23567e-009 -9.23659e-009 1.05616e-009 2.12141e-009 -1.63807e-008 1.83884e-009 1.23568e-009 -9.23658e-009 1.05613e-009 7.73091 5.47488 0.417314 1.23567e-009 -9.23658e-009 1.05615e-009 2.90554 0.965183 0.102902 1.23568e-009 -9.23658e-009 1.05615e-009 10.2786 0.731801 0.0259123 1.23567e-009 -9.2366e-009 1.05616e-009 2.22167 -0.733487 -0.20892 1.85655e-013 -7.20959e-014 1.3086e-013 10.4037 12.7882 -10.7375 21.5502 -15.1001 -42.5598 1.1005 -28.3964 4.35615 1.80904e-009 -1.49107e-009 -1.30623e-009 3.15017e-009 -2.52686e-009 -2.22251e-009 1.80903e-009 -1.49107e-009 -1.30621e-009 -7.73091 5.47488 -0.417314 1.80904e-009 -1.49108e-009 -1.30623e-009 -2.90554 0.965183 -0.102902 1.80903e-009 -1.49107e-009 -1.30623e-009 -10.2786 0.731801 -0.0259123 1.80904e-009 -1.49107e-009 -1.30623e-009 -2.22167 -0.733487 0.20892 -2.03217e-016 0 -3.88251e-019 13.2325 -32.5413 12.911 0.153828 45.304 -0.268578 -2.75584 14.2516 5.19112 2.03217e-016 0 3.88251e-019 4.98405 -17.484 -3.28912 0.227057 23.7538 -0.701372 1.17192 0.543725 15.1138 
42.3335 45.0936 23.4304 -125.035 78.8719 119.204 8.02087 -7.39291 -4.4899 6.20224 -5.25084 -0.812238 3.42227 5.63607 4.07435 3.88826 -15.8324 7.91497 -0 0 0 -0 0 0 9.88089e-014 -5.4413e-014 8.42909e-014 -22.4388 -61.3477 49.4569 -14.2859 -7.18511 26.136 -0.108072 -9.16699 -1.30062 8.72859e-010 -4.56081e-009 6.17959e-010 1.49865e-009 -8.17738e-009 1.07752e-009 8.72865e-010 -4.56079e-009 6.17937e-010 7.73091 5.47488 0.417314 8.72858e-010 -4.56081e-009 6.17949e-010 2.90554 0.965183 0.102902 8.72868e-010 -4.56079e-009 6.17954e-010 10.2786 0.731801 0.0259123 8.72856e-010 -4.56081e-009 6.17963e-010 2.22167 -0.733487 -0.20892 9.85908e-014 -5.44227e-014 8.40145e-014 8.36099 14.8609 -11.1315 22.1703 -16.0262 -44.1911 1.21865 -29.735 4.6022 1.24049e-009 -1.19788e-009 -1.05078e-009 2.16522e-009 -2.03429e-009 -1.79208e-009 1.24048e-009 -1.19788e-009 -1.05077e-009 -7.73091 5.47488 -0.417314 1.24049e-009 -1.19788e-009 -1.05078e-009 -2.90554 0.965183 -0.102902 1.24048e-009 -1.19788e-009 -1.05078e-009 -10.2786 0.731801 -0.0259123 1.24049e-009 -1.19788e-009 -1.05078e-009 -2.22167 -0.733487 0.20892 -2.03217e-016 0 -3.88251e-019 13.4555 -33.7344 13.2785 0.174181 45.1017 -0.320805 -2.57779 14.6213 4.90566 2.03217e-016 0 3.88251e-019 4.84008 -16.3194 -2.85193 0.252142 24.0571 -0.518439 1.12993 0.253001 14.6109 
42.2519 45.433 23.4539 -124.945 78.8235 119.453 8.02133 -7.39236 -3.65036 6.32205 -5.39469 -0.559157 3.75315 6.08979 3.8588 3.35482 -15.6691 7.35902 -0 0 0 -0 0 0 6.33506e-015 -3.31868e-014 1.76693e-014 -20.637 -61.687 51.6606 -14.1159 -7.04717 25.7901 -0.0857939 -8.27227 -1.17115 3.95986e-010 8.22167e-010 1.13789e-010 6.80327e-010 1.29958e-009 2.0057e-010 3.95992e-010 8.22186e-010 1.1377e-010 7.73091 5.47488 0.417314 3.95985e-010 8.22164e-010 1.13779e-010 2.90554 0.965183 0.102902 3.95994e-010 8.2219e-010 1.13785e-010 10.2786 0.731801 0.0259123 3.95981e-010 8.22165e-010 1.13794e-010 2.22167 -0.733487 -0.20892 6.11429e-015 -3.3196e-014 1.73754e-014 6.3089 16.9364 -11.5568 22.723 -16.8935 -45.7387 1.33099 -30.8974 4.82287 4.82523e-010 -7.11309e-010 -6.66596e-010 8.49985e-010 -1.21326e-009 -1.14241e-009 4.82516e-010 -7.11307e-010 -6.66587e-010 -7.73091 5.47488 -0.417314 4.82521e-010 -7.11314e-010 -6.66604e-010 -2.90554 0.965183 -0.102902 4.82516e-010 -7.11308e-010 -6.66596e-010 -10.2786 0.731801 -0.0259123 4.82529e-010 -7.11305e-010 -6.66599e-010 -2.22167 -0.733487 0.20892 -2.03217e-016 0 -3.88251e-019 13.6231 -34.7397 13.517 0.189046 44.9252 -0.371506 -2.39846 14.9667 4.60287 2.03217e-016 0 3.88251e-019 4.70496 -15.2538 -2.41538 0.275259 24.4909 -0.35918 1.0948 -0.072713 14.0784 
42.1678 45.7751 23.4685 -124.785 78.7786 119.672 8.03397 -7.38178 -2.93387 6.39084 -5.50442 -0.341127 3.99452 6.40166 3.65512 2.92594 -15.4303 6.85289 -0 0 0 -0 0 0 -4.60133e-014 -1.58989e-014 -2.45002e-014 -18.646 -62.0561 54.0412 -13.9282 -6.89667 25.4098 -0.0677829 -7.40798 -1.04702 4.65753e-011 4.23186e-009 -2.28758e-010 8.0466e-011 7.31202e-009 -3.95349e-010 4.65808e-011 4.23188e-009 -2.28774e-010 7.73091 5.47488 0.417314 4.65744e-011 4.23186e-009 -2.28768e-010 2.90554 0.965183 0.102902 4.65809e-011 4.23189e-009 -2.28761e-010 10.2786 0.731801 0.0259123 4.65689e-011 4.23186e-009 -2.28752e-010 2.22167 -0.733487 -0.20892 -4.62258e-014 -1.59078e-014 -2.47984e-014 4.18739 18.9969 -11.8209 23.1783 -17.636 -47.1062 1.40092 -31.5662 4.95349 -5.46738e-012 -3.33596e-010 -3.18936e-010 5.45068e-013 -5.7396e-010 -5.50863e-010 -5.47493e-012 -3.33594e-010 -3.1893e-010 -7.73091 5.47488 -0.417314 -5.46961e-012 -3.336e-010 -3.18946e-010 -2.90554 0.965183 -0.102902 -5.47488e-012 -3.33594e-010 -3.18936e-010 -10.2786 0.731801 -0.0259123 -5.45962e-012 -3.33591e-010 -3.1894e-010 -2.22167 -0.733487 0.20892 -2.03217e-016 0 -3.88251e-019 13.7493 -35.5147 13.5947 0.197283 44.7458 -0.421348 -2.22383 15.2559 4.28217 2.03217e-016 0 3.88251e-019 4.58734 -14.3314 -2.00462 0.297425 25.1432 -0.22517 1.0461 -0.350523 13.3828 
42.0794 46.1151 23.4768 -124.508 78.7482 119.829 8.06908 -7.33918 -2.4288 6.39295 -5.58049 -0.183554 4.09008 6.57988 3.48504 2.66545 -15.1587 6.46002 -0 0 0 -0 0 0 -3.5329e-014 -1.33797e-015 -3.12069e-014 -16.0656 -62.4957 57.0281 -13.7056 -6.72033 24.962 -0.0536868 -6.55937 -0.926086 -1.62555e-010 4.45758e-009 -3.44643e-010 -2.7951e-010 7.74627e-009 -5.97187e-010 -1.6255e-010 4.4576e-009 -3.44657e-010 7.73091 5.47488 0.417314 -1.62557e-010 4.45758e-009 -3.44651e-010 2.90554 0.965183 0.102902 -1.62551e-010 4.45761e-009 -3.44645e-010 10.2786 0.731801 0.0259123 -1.62562e-010 4.45759e-009 -3.44636e-010 2.22167 -0.733487 -0.20892 -3.55152e-014 -1.3468e-015 -3.1486e-014 1.91798 21.0643 -11.8027 23.5646 -18.2983 -48.2857 1.40987 -31.6279 4.96683 -1.02383e-010 -8.23807e-011 4.15044e-011 -1.75831e-010 -1.44217e-010 6.99569e-011 -1.02391e-010 -8.23806e-011 4.1509e-011 -7.73091 5.47488 -0.417314 -1.02385e-010 -8.23854e-011 4.14946e-011 -2.90554 0.965183 -0.102902 -1.0239e-010 -8.23802e-011 4.1506e-011 -10.2786 0.731801 -0.0259123 -1.02374e-010 -8.23765e-011 4.15006e-011 -2.22167 -0.733487 0.20892 -2.03217e-016 0 -3.88251e-019 13.8205 -36.0364 13.4466 0.196211 44.5407 -0.474478 -2.0419 15.4932 3.90016 2.03217e-016 0 3.88251e-019 4.4882 -13.5277 -1.60374 0.320392 26.1044 -0.114926 0.971398 -0.566454 12.4407 
